<svg width="512" height="512" viewBox="0 0 512 512" xmlns="http://www.w3.org/2000/svg">
  <defs>
    <linearGradient id="bgMask512" x1="0%" y1="0%" x2="100%" y2="100%">
      <stop offset="0%" style="stop-color:#4a90e2"/>
      <stop offset="100%" style="stop-color:#667eea"/>
    </linearGradient>
  </defs>
  
  <!-- Full Background (maskable için tüm alanı kapla) -->
  <rect width="512" height="512" fill="url(#bgMask512)"/>
  
  <!-- Safe Area içinde tasarım (orta %80 alan) -->
  <!-- Safe area: 51.2px margin (512 * 0.1) -->
  
  <!-- Card Base (safe area içinde) -->
  <rect x="102" y="154" width="308" height="204" rx="20" fill="white" opacity="0.95"/>
  
  <!-- German Flag Colors (safe area içinde) -->
  <rect x="122" y="174" width="268" height="16" fill="#000000"/>
  <rect x="122" y="190" width="268" height="16" fill="#DD0000"/>
  <rect x="122" y="206" width="268" height="16" fill="#FFCE00"/>
  
  <!-- Text (ortalanmış, safe area içinde) -->
  <text x="256" y="250" text-anchor="middle" font-family="Arial, sans-serif" font-size="32" font-weight="bold" fill="#333">DE</text>
  <text x="256" y="280" text-anchor="middle" font-family="Arial, sans-serif" font-size="24" fill="#666">Verb</text>
  <text x="256" y="305" text-anchor="middle" font-family="Arial, sans-serif" font-size="24" fill="#666">Game</text>
  <text x="256" y="330" text-anchor="middle" font-family="Arial, sans-serif" font-size="18" fill="#999">Mobile</text>
  
  <!-- Game Icons (safe area içinde) -->
  <circle cx="185" cy="390" r="16" fill="#ff6b6b"/>
  <circle cx="256" cy="390" r="16" fill="#4ecdc4"/>
  <circle cx="327" cy="390" r="16" fill="#45b7d1"/>
  
  <!-- Star decoration (safe area içinde) -->
  <polygon points="256,90 262,110 282,110 267,122 273,142 256,130 239,142 245,122 230,110 250,110" fill="#FFD700"/>
  
  <!-- Corner decorative elements (safe area içinde) -->
  <circle cx="140" cy="120" r="8" fill="#FFD700" opacity="0.6"/>
  <circle cx="372" cy="120" r="8" fill="#FFD700" opacity="0.6"/>
  <circle cx="140" cy="430" r="8" fill="#FFD700" opacity="0.6"/>
  <circle cx="372" cy="430" r="8" fill="#FFD700" opacity="0.6"/>
</svg> 