<svg width="192" height="192" viewBox="0 0 192 192" xmlns="http://www.w3.org/2000/svg">
  <defs>
    <linearGradient id="bgMask192" x1="0%" y1="0%" x2="100%" y2="100%">
      <stop offset="0%" style="stop-color:#4a90e2"/>
      <stop offset="100%" style="stop-color:#667eea"/>
    </linearGradient>
  </defs>
  
  <!-- Full Background (maskable için tüm alanı kapla) -->
  <rect width="192" height="192" fill="url(#bgMask192)"/>
  
  <!-- Safe Area içinde tasarım (orta %80 alan) -->
  <!-- Safe area: 19.2px margin (192 * 0.1) -->
  
  <!-- Card Base (safe area içinde) -->
  <rect x="38" y="58" width="116" height="76" rx="8" fill="white" opacity="0.95"/>
  
  <!-- German Flag Colors (küçültülmüş) -->
  <rect x="44" y="64" width="104" height="6" fill="#000000"/>
  <rect x="44" y="70" width="104" height="6" fill="#DD0000"/>
  <rect x="44" y="76" width="104" height="6" fill="#FFCE00"/>
  
  <!-- Text (ortalanmış, safe area içinde) -->
  <text x="96" y="95" text-anchor="middle" font-family="Arial, sans-serif" font-size="12" font-weight="bold" fill="#333">DE</text>
  <text x="96" y="108" text-anchor="middle" font-family="Arial, sans-serif" font-size="10" fill="#666">Verb</text>
  <text x="96" y="120" text-anchor="middle" font-family="Arial, sans-serif" font-size="10" fill="#666">Game</text>
  
  <!-- Game Icons (safe area içinde) -->
  <circle cx="70" cy="145" r="6" fill="#ff6b6b"/>
  <circle cx="96" cy="145" r="6" fill="#4ecdc4"/>
  <circle cx="122" cy="145" r="6" fill="#45b7d1"/>
  
  <!-- Star decoration (safe area içinde) -->
  <polygon points="96,35 98,42 105,42 100,46 102,53 96,49 90,53 92,46 87,42 94,42" fill="#FFD700"/>
</svg> 